<svg xmlns="http://www.w3.org/2000/svg" xmlns:svg="http://www.w3.org/2000/svg" xmlns:xlink="http://www.w3.org/1999/xlink" id="svg8" width="32" height="32" version="1.1" viewBox="0 0 22.049 22.049"><defs id="defs2"><linearGradient id="linearGradient884"><stop id="stop880" offset="0" style="stop-color:#d400dc;stop-opacity:1"/><stop id="stop882" offset="1" style="stop-color:#0096cc;stop-opacity:1"/></linearGradient><linearGradient id="linearGradient886" x1="29.638" x2="102.654" y1="26.982" y2="102.547" gradientTransform="matrix(0.26872072,0,0,0.26885832,-6.7492581,-6.7676287)" gradientUnits="userSpaceOnUse" xlink:href="#linearGradient884"/></defs><metadata id="metadata5"/><g style="display:inline" id="layer2"><path style="fill:#fff;fill-opacity:1;stroke-width:1.04956" id="path874" d="M 18.238095,0.00476516 C 13.219304,0.00993799 8.1995744,-0.02149155 3.1814513,0.04442552 1.3235816,0.24587649 -0.14154916,2.0948506 0.0109086,3.9445436 0.04208668,8.9470538 -0.02093892,13.950598 0.06743101,18.952449 c 0.25698758,1.835162 2.10090069,3.255242 3.93644339,3.08181 4.9769832,-0.02304 9.9548586,0.02815 14.9312156,-0.0498 1.834725,-0.24749 3.270527,-2.083281 3.099715,-3.922183 -0.01197,-4.956058 0.02268,-9.9129854 -0.044,-14.8684217 -0.175804,-1.8176948 -1.941008,-3.28855892 -3.75271,-3.18908914 z"/><path style="fill:url(#linearGradient886);fill-opacity:1;stroke-width:1.04956" id="path888" d="M 18.370484,18.364974 H 3.6805077 V 3.6674834 H 18.370484 m 0,-2.0996436 H 3.6805077 A 2.0985676,2.0996421 0 0 0 1.5819429,3.6674834 V 18.364974 a 2.0985676,2.0996421 0 0 0 2.0985648,2.099642 H 18.370484 a 2.0985676,2.0996421 0 0 0 2.098569,-2.099642 V 3.6674834 c 0,-1.1653031 -0.944358,-2.0996436 -2.098569,-2.0996436 m -2.62321,13.9101272 c 0,-1.57473 -3.147851,-2.362096 -4.721777,-2.362096 -1.5739263,0 -4.721777,0.787366 -4.721777,2.362096 v 0.787367 h 9.443554 m -4.721777,-4.986649 a 2.3608886,2.3620974 0 0 0 2.360886,-2.3621 2.3608886,2.3620974 0 0 0 -2.360886,-2.362095 2.3608886,2.3620974 0 0 0 -2.3608913,2.362095 2.3608886,2.3620974 0 0 0 2.3608913,2.3621 z"/></g></svg>