<svg xmlns="http://www.w3.org/2000/svg" xmlns:svg="http://www.w3.org/2000/svg" xmlns:xlink="http://www.w3.org/1999/xlink" id="svg8" width="512" height="512" version="1.1" viewBox="0 0 132.292 132.292"><defs id="defs2"><linearGradient id="linearGradient884"><stop style="stop-color:#d400dc;stop-opacity:1" id="stop880" offset="0"/><stop style="stop-color:#0096cc;stop-opacity:1" id="stop882" offset="1"/></linearGradient><filter id="filter5014" width="1.077" height="1.077" x="-.038" y="-.038" style="color-interpolation-filters:sRGB"><feGaussianBlur id="feGaussianBlur5016" stdDeviation="1.905"/></filter><filter style="color-interpolation-filters:sRGB" id="filter876" width="1.24" height="1.24" x="-.12" y="-.12"><feGaussianBlur id="feGaussianBlur878" stdDeviation="3.514"/></filter><linearGradient id="linearGradient886" x1="29.638" x2="102.654" y1="26.982" y2="102.547" gradientUnits="userSpaceOnUse" xlink:href="#linearGradient884"/></defs><metadata id="metadata5"/><g id="layer1" style="display:inline"><circle id="circle3352" cx="66.146" cy="68.065" r="59.531" style="display:inline;opacity:.36;fill:#000;fill-opacity:1;fill-rule:evenodd;stroke-width:.256424;filter:url(#filter5014)"/><circle style="display:inline;fill:#fff;fill-opacity:1;fill-rule:evenodd;stroke-width:.256424" id="path1917" cx="66.146" cy="66.146" r="59.531"/></g><g id="layer2" style="display:inline"><path id="path854" d="M 93.478985,95.47902 H 38.812659 V 40.812711 h 54.666326 m 0,-7.809479 H 38.812659 a 7.8094742,7.8094742 0 0 0 -7.809464,7.809479 V 95.47902 a 7.8094742,7.8094742 0 0 0 7.809464,7.80947 h 54.666326 a 7.8094742,7.8094742 0 0 0 7.809485,-7.80947 V 40.812711 c 0,-4.334265 -3.514274,-7.809479 -7.809485,-7.809479 m -9.761839,51.737763 c 0,-5.857104 -11.714212,-8.785651 -17.571318,-8.785651 -5.857105,0 -17.571316,2.928547 -17.571316,8.785651 v 2.928557 H 83.717146 M 66.145828,69.122054 a 8.7856584,8.7856584 0 0 0 8.785652,-8.785667 8.7856584,8.7856584 0 0 0 -8.785652,-8.785652 8.7856584,8.7856584 0 0 0 -8.785665,8.785652 8.7856584,8.7856584 0 0 0 8.785665,8.785667 z" style="opacity:.16;stroke-width:3.90473;filter:url(#filter876)"/><path style="fill:url(#linearGradient886);fill-opacity:1;stroke-width:3.90473" id="path874" d="M 93.478985,93.47899 H 38.812659 V 38.812681 h 54.666326 m 0,-7.809479 H 38.812659 a 7.8094742,7.8094742 0 0 0 -7.809464,7.809479 V 93.47899 a 7.8094742,7.8094742 0 0 0 7.809464,7.80947 h 54.666326 a 7.8094742,7.8094742 0 0 0 7.809485,-7.80947 V 38.812681 c 0,-4.334265 -3.514274,-7.809479 -7.809485,-7.809479 m -9.761839,51.737763 c 0,-5.857104 -11.714212,-8.785651 -17.571318,-8.785651 -5.857105,0 -17.571316,2.928547 -17.571316,8.785651 v 2.928557 H 83.717146 M 66.145828,67.122024 a 8.7856584,8.7856584 0 0 0 8.785652,-8.785667 8.7856584,8.7856584 0 0 0 -8.785652,-8.785652 8.7856584,8.7856584 0 0 0 -8.785665,8.785652 8.7856584,8.7856584 0 0 0 8.785665,8.785667 z"/></g></svg>