<svg xmlns="http://www.w3.org/2000/svg" xmlns:svg="http://www.w3.org/2000/svg" xmlns:xlink="http://www.w3.org/1999/xlink" id="svg8" width="512" height="512" version="1.1" viewBox="0 0 352.778 352.778"><defs id="defs2"><linearGradient id="linearGradient884"><stop id="stop880" offset="0" style="stop-color:#d400dc;stop-opacity:1"/><stop id="stop882" offset="1" style="stop-color:#0096cc;stop-opacity:1"/></linearGradient><linearGradient id="linearGradient886" x1="29.638" x2="102.654" y1="26.982" y2="102.547" gradientTransform="matrix(2.6015091,0,0,2.6015091,4.309906,4.3099256)" gradientUnits="userSpaceOnUse" xlink:href="#linearGradient884"/></defs><metadata id="metadata5"/><g style="display:inline" id="layer2"><rect style="fill:#fff;fill-opacity:1;stroke-width:37.6944;stroke-dashoffset:88.7603;stroke-opacity:.25;paint-order:fill markers stroke" id="rect836" width="352.778" height="352.778" x="0" y="0"/><path style="fill:url(#linearGradient886);fill-opacity:1;stroke-width:10.1581" id="path888" d="M 247.49635,247.49636 H 105.2814 v -142.2149 h 142.21495 m 0,-20.31643 H 105.2814 a 20.31642,20.31642 0 0 0 -20.316395,20.31643 v 142.2149 a 20.31642,20.31642 0 0 0 20.316395,20.3164 h 142.21495 a 20.31642,20.31642 0 0 0 20.31644,-20.3164 v -142.2149 c 0,-11.275628 -9.14242,-20.31643 -20.31644,-20.31643 m -25.39553,134.59626 c 0,-15.23731 -30.47462,-22.85595 -45.71193,-22.85595 -15.23732,0 -45.71196,7.61864 -45.71196,22.85595 v 7.61866 h 91.42389 m -45.71193,-48.25148 a 22.855971,22.855971 0 0 0 22.85594,-22.85599 22.855971,22.855971 0 0 0 -22.85594,-22.85596 22.855971,22.855971 0 0 0 -22.85599,22.85596 22.855971,22.855971 0 0 0 22.85599,22.85599 z"/></g></svg>